<svg xmlns="http://www.w3.org/2000/svg" width="32" height="33" viewBox="0 0 32 33" fill="none">
    <path d="M28.7452 14.8194L26.9319 12.7128C26.5852 12.3128 26.3052 11.5661 26.3052 11.0328V8.76611C26.3052 7.35278 25.1452 6.19278 23.7319 6.19278H21.4652C20.9452 6.19278 20.1852 5.91278 19.7852 5.56611L17.6785 3.75278C16.7585 2.96611 15.2519 2.96611 14.3185 3.75278L12.2252 5.57945C11.8252 5.91278 11.0652 6.19278 10.5452 6.19278H8.23854C6.82521 6.19278 5.66521 7.35278 5.66521 8.76611V11.0461C5.66521 11.5661 5.38521 12.3128 5.05187 12.7128L3.25188 14.8328C2.47854 15.7528 2.47854 17.2461 3.25188 18.1661L5.05187 20.2861C5.38521 20.6861 5.66521 21.4328 5.66521 21.9528V24.2328C5.66521 25.6461 6.82521 26.8061 8.23854 26.8061H10.5452C11.0652 26.8061 11.8252 27.0861 12.2252 27.4328L14.3319 29.2461C15.2519 30.0328 16.7585 30.0328 17.6919 29.2461L19.7985 27.4328C20.1985 27.0861 20.9452 26.8061 21.4785 26.8061H23.7452C25.1585 26.8061 26.3185 25.6461 26.3185 24.2328V21.9661C26.3185 21.4461 26.5985 20.6861 26.9452 20.2861L28.7585 18.1794C29.5319 17.2594 29.5319 15.7394 28.7452 14.8194ZM21.5452 13.9794L15.1052 20.4194C14.9185 20.6061 14.6652 20.7128 14.3985 20.7128C14.1319 20.7128 13.8785 20.6061 13.6919 20.4194L10.4652 17.1928C10.0785 16.8061 10.0785 16.1661 10.4652 15.7794C10.8519 15.3928 11.4919 15.3928 11.8785 15.7794L14.3985 18.2994L20.1319 12.5661C20.5185 12.1794 21.1585 12.1794 21.5452 12.5661C21.9319 12.9528 21.9319 13.5928 21.5452 13.9794Z" fill="#D8D8D8"/>
</svg>