<svg xmlns="http://www.w3.org/2000/svg" width="32" height="33" viewBox="0 0 32 33" fill="none">
    <path d="M28.7491 14.8194L26.9358 12.7128C26.5891 12.3128 26.3091 11.5661 26.3091 11.0328V8.76611C26.3091 7.35278 25.1491 6.19278 23.7358 6.19278H21.4691C20.9491 6.19278 20.1891 5.91278 19.7891 5.56611L17.6824 3.75278C16.7624 2.96611 15.2558 2.96611 14.3224 3.75278L12.2291 5.57945C11.8291 5.91278 11.0691 6.19278 10.5491 6.19278H8.24245C6.82911 6.19278 5.66911 7.35278 5.66911 8.76611V11.0461C5.66911 11.5661 5.38911 12.3128 5.05578 12.7128L3.25578 14.8328C2.48245 15.7528 2.48245 17.2461 3.25578 18.1661L5.05578 20.2861C5.38911 20.6861 5.66911 21.4328 5.66911 21.9528V24.2328C5.66911 25.6461 6.82911 26.8061 8.24245 26.8061H10.5491C11.0691 26.8061 11.8291 27.0861 12.2291 27.4328L14.3358 29.2461C15.2558 30.0328 16.7624 30.0328 17.6958 29.2461L19.8024 27.4328C20.2024 27.0861 20.9491 26.8061 21.4824 26.8061H23.7491C25.1624 26.8061 26.3224 25.6461 26.3224 24.2328V21.9661C26.3224 21.4461 26.6024 20.6861 26.9491 20.2861L28.7624 18.1794C29.5358 17.2594 29.5358 15.7394 28.7491 14.8194ZM21.5491 13.9794L15.1091 20.4194C14.9224 20.6061 14.6691 20.7128 14.4024 20.7128C14.1358 20.7128 13.8824 20.6061 13.6958 20.4194L10.4691 17.1928C10.0824 16.8061 10.0824 16.1661 10.4691 15.7794C10.8558 15.3928 11.4958 15.3928 11.8824 15.7794L14.4024 18.2994L20.1358 12.5661C20.5224 12.1794 21.1624 12.1794 21.5491 12.5661C21.9358 12.9528 21.9358 13.5928 21.5491 13.9794Z" fill="#E6CD84"/>
</svg>