<svg width="46" height="46" viewBox="0 0 46 46" fill="none" xmlns="http://www.w3.org/2000/svg">
<circle cx="23" cy="23" r="23" fill="url(#paint0_linear_975_627)"/>
<path d="M25.3498 13H20.6498C19.6098 13 18.7598 13.84 18.7598 14.88V15.82C18.7598 16.86 19.5998 17.7 20.6398 17.7H25.3498C26.3898 17.7 27.2298 16.86 27.2298 15.82V14.88C27.2398 13.84 26.3898 13 25.3498 13Z" fill="#101012"/>
<path d="M28.2391 15.8205C28.2391 17.4105 26.9391 18.7105 25.3491 18.7105H20.6491C19.0591 18.7105 17.7591 17.4105 17.7591 15.8205C17.7591 15.2605 17.1591 14.9105 16.6591 15.1705C15.2491 15.9205 14.2891 17.4105 14.2891 19.1205V28.5305C14.2891 30.9905 16.2991 33.0005 18.7591 33.0005H27.2391C29.6991 33.0005 31.7091 30.9905 31.7091 28.5305V19.1205C31.7091 17.4105 30.7491 15.9205 29.3391 15.1705C28.8391 14.9105 28.2391 15.2605 28.2391 15.8205ZM23.3791 27.9505H18.9991C18.5891 27.9505 18.2491 27.6105 18.2491 27.2005C18.2491 26.7905 18.5891 26.4505 18.9991 26.4505H23.3791C23.7891 26.4505 24.1291 26.7905 24.1291 27.2005C24.1291 27.6105 23.7891 27.9505 23.3791 27.9505ZM25.9991 23.9505H18.9991C18.5891 23.9505 18.2491 23.6105 18.2491 23.2005C18.2491 22.7905 18.5891 22.4505 18.9991 22.4505H25.9991C26.4091 22.4505 26.7491 22.7905 26.7491 23.2005C26.7491 23.6105 26.4091 23.9505 25.9991 23.9505Z" fill="#101012"/>
<defs>
<linearGradient id="paint0_linear_975_627" x1="-0.0543732" y1="23" x2="45.9456" y2="23" gradientUnits="userSpaceOnUse">
<stop stop-color="#6AFFAF"/>
<stop offset="1" stop-color="#5CE3FE"/>
</linearGradient>
</defs>
</svg>
