<svg xmlns="http://www.w3.org/2000/svg" width="24" height="24" viewBox="0 0 24 24" fill="none">
<path d="M17 22H7C6.59 22 6.25 21.66 6.25 21.25C6.25 20.84 6.59 20.5 7 20.5H17C17.41 20.5 17.75 20.84 17.75 21.25C17.75 21.66 17.41 22 17 22Z" fill="#101012"/>
<path d="M20.3502 5.52004L16.3502 8.38004C15.8202 8.76004 15.0602 8.53004 14.8302 7.92004L12.9402 2.88004C12.6202 2.01004 11.3902 2.01004 11.0702 2.88004L9.17022 7.91004C8.94022 8.53004 8.19022 8.76004 7.66022 8.37004L3.66022 5.51004C2.86022 4.95004 1.80022 5.74004 2.13022 6.67004L6.29022 18.32C6.43022 18.72 6.81022 18.98 7.23022 18.98H16.7602C17.1802 18.98 17.5602 18.71 17.7002 18.32L21.8602 6.67004C22.2002 5.74004 21.1402 4.95004 20.3502 5.52004ZM14.5002 14.75H9.50022C9.09022 14.75 8.75022 14.41 8.75022 14C8.75022 13.59 9.09022 13.25 9.50022 13.25H14.5002C14.9102 13.25 15.2502 13.59 15.2502 14C15.2502 14.41 14.9102 14.75 14.5002 14.75Z" fill="#101012"/>
</svg>
