<svg width="28" height="28" viewBox="0 0 28 28" fill="none" xmlns="http://www.w3.org/2000/svg">
<path d="M13.9989 0.666504C6.65219 0.666504 0.665527 6.65317 0.665527 13.9998C0.665527 21.3465 6.65219 27.3332 13.9989 27.3332C21.3455 27.3332 27.3322 21.3465 27.3322 13.9998C27.3322 6.65317 21.3455 0.666504 13.9989 0.666504ZM20.3722 10.9332L12.8122 18.4932C12.6255 18.6798 12.3722 18.7865 12.1055 18.7865C11.8389 18.7865 11.5855 18.6798 11.3989 18.4932L7.62553 14.7198C7.23886 14.3332 7.23886 13.6932 7.62553 13.3065C8.01219 12.9198 8.65219 12.9198 9.03886 13.3065L12.1055 16.3732L18.9589 9.51984C19.3455 9.13317 19.9855 9.13317 20.3722 9.51984C20.7589 9.9065 20.7589 10.5332 20.3722 10.9332Z" fill="#6AFFAF"/>
</svg>
