<svg xmlns="http://www.w3.org/2000/svg" width="184" height="178" viewBox="0 0 184 178" fill="none">
    <path d="M176.156 42.4966L164.416 146.081L145.616 154.207L118.916 165.739L90.7656 177.908V63.6032L142.556 50.7983L149.926 48.9774L151.836 48.5075L176.156 42.4966Z" fill="#D5D5D5"/>
    <path d="M151.834 48.5073L145.614 154.207L118.914 165.739L122.874 55.6734L142.554 50.7981L149.924 48.9772L151.834 48.5073Z" fill="#AD1616"/>
    <path d="M5.375 42.4966L17.115 146.081L35.915 154.207L62.615 165.739L90.765 177.908V63.6032L38.975 50.7983L31.605 48.9774L29.695 48.5075L5.375 42.4966Z" fill="#D5D5D5"/>
    <path d="M29.6953 48.5073L35.9153 154.207L62.6153 165.739L58.6553 55.6734L38.9753 50.7981L31.6053 48.9772L29.6953 48.5073Z" fill="#B71616"/>
    <path d="M183.75 36.6739L91.9949 59.0553L60.4929 51.3683L28.9409 43.6712L0.25 36.6739L91.9949 14.2925L115.644 20.0603L143.484 26.8477L183.75 36.6739Z" fill="#E3E3E3"/>
    <path d="M0.25 36.6738L3.25114 64.0583L91.9989 89.4426V59.0602L0.25 36.6738Z" fill="#D5D5D5"/>
    <path d="M183.749 36.6738L180.748 64.0583L92 89.4426V59.0602L183.749 36.6738Z" fill="#EBEBEB"/>
    <path d="M61.5238 80.7272L30.572 71.8706L28.9414 43.6714L60.4934 51.3684L61.5238 80.7272Z" fill="#B71616"/>
    <path d="M154.59 43.791L152.97 72.0002L122.008 80.8568L123.048 51.4781L154.59 43.791Z" fill="#AD1616"/>
    <path d="M143.485 26.8479L60.4934 51.3685L28.9414 43.6715L115.644 20.0605L143.485 26.8479Z" fill="#BA5050"/>
    <path d="M40.5039 26.8479L123.495 51.3685L155.047 43.6715L68.3445 20.0605L40.5039 26.8479Z" fill="#BA5050"/>
    <path d="M156.37 35.5524C157.596 33.0746 158.549 30.4236 158.883 27.6796C159.784 20.2775 154.521 13.6426 150.397 7.97361C148.354 5.16602 146.146 2.22437 142.895 0.892499C139.667 -0.431539 135.964 0.0802652 132.601 1.03146C120.106 4.56712 110.109 13.5379 100.606 22.2268C98.2223 24.4072 95.7054 26.8194 95.1552 29.9656C94.3029 34.8409 98.8046 39.363 103.726 40.4933C108.648 41.6236 113.772 40.2839 118.641 38.952C129.547 35.9692 140.453 32.9865 151.36 30.0037" fill="#CB1616"/>
    <path d="M108.876 41.1677C119.926 40.9563 130.974 40.744 142.023 40.5326C145.425 40.468 148.932 40.3809 152.043 39.0324C155.154 37.6839 157.799 34.7364 157.667 31.4102C157.527 27.8804 154.29 25.0512 150.795 24.1607C147.3 23.2702 143.608 23.8936 140.069 24.6011C126.057 27.4018 111.546 31.9063 102.012 42.3352" fill="#840F0F"/>
    <path d="M32.7485 37.1998C31.523 34.722 30.5686 32.071 30.2345 29.327C29.3342 21.9249 34.5972 15.2901 38.7207 9.62107C40.7635 6.81348 42.9733 3.87183 46.2226 2.53996C49.4508 1.21592 53.1542 1.72773 56.5165 2.67892C69.0122 6.21458 79.009 15.1854 88.5116 23.8743C90.8955 26.0546 93.4125 28.4668 93.9627 31.613C94.815 36.4884 90.3133 41.0105 85.3915 42.1408C80.4696 43.271 75.3456 41.9313 70.4768 40.5995L37.7584 31.6512" fill="#CB1616"/>
    <path d="M80.2416 42.8152C69.1924 42.6038 58.1442 42.3914 47.095 42.1801C43.6927 42.1155 40.1864 42.0284 37.0752 40.6799C33.964 39.3314 31.318 36.3839 31.4501 33.0576C31.5901 29.5278 34.8283 26.6987 38.3227 25.8082C41.818 24.9177 45.5104 25.541 49.0487 26.2486C63.0611 29.0493 77.5716 33.5538 87.1062 43.9826" fill="#840F0F"/>
    <path d="M108.322 34.1463C104.539 42.7332 79.0787 43.2465 74.3775 35.8408C74.6549 34.901 76.3079 29.212 76.3076 29.202C77.1747 26.2311 81.1025 23.7645 84.4225 24.5289C88.6709 25.5109 93.6057 25.5077 97.775 24.222C100.835 23.275 105.251 25.0513 106.111 28.1621L108.322 34.1463Z" fill="#A91313"/>
    <path d="M103.921 43.0947C105.565 42.2311 106.921 40.8165 107.789 39.1818C108.483 37.8743 108.966 36.2501 108.556 34.7781L108.026 33.3402C108.19 33.7796 107.724 34.6041 107.493 34.9482C107.114 35.5135 106.582 35.9662 106.022 36.3448C103.731 37.8891 100.792 38.4978 98.1093 38.9204C96.5453 39.1671 95.1092 39.7203 93.5242 39.9086C91.7628 40.1181 89.9679 40.0567 88.2271 39.7114C85.2042 39.1117 82.0714 39.093 79.073 38.1914C77.9926 37.867 76.8893 37.4594 75.9643 36.7985C75.5239 36.4838 74.493 35.6306 74.635 34.9665C74.6178 35.0471 74.3438 35.9719 74.3438 35.9719C73.6513 39.3568 77.7713 43.681 82.7427 44.5808C93.6645 46.5582 102.967 43.595 103.921 43.0947Z" fill="#AD1616"/>
</svg>