<svg width="16" height="16" viewBox="0 0 16 16" fill="none" xmlns="http://www.w3.org/2000/svg">
<g clip-path="url(#clip0_5422_35294)">
<path d="M7.60657 5.33832L8.86282 5.66934C8.90548 5.67932 8.94366 5.70311 8.97141 5.73702C8.99917 5.77092 9.01494 5.81305 9.01629 5.85684C9.01629 5.96332 8.92161 6.05129 8.80518 6.05129H7.98111C7.8923 6.05103 7.80437 6.03374 7.72208 6.00036C7.60078 5.94944 7.46097 5.96101 7.36791 6.04666L6.9281 6.45175C6.90775 6.46956 6.8902 6.49031 6.87601 6.51332C6.85785 6.54311 6.84577 6.57619 6.84046 6.61067C6.83515 6.64515 6.83671 6.68033 6.84506 6.7142C6.85341 6.74807 6.86838 6.77995 6.8891 6.80801C6.90983 6.83607 6.93591 6.85974 6.96583 6.87768C7.2094 7.02385 7.48211 7.11473 7.76467 7.14388V7.5536C7.76467 7.75731 7.94592 7.92397 8.16675 7.92397H8.56884C8.7899 7.92397 8.97115 7.75731 8.97115 7.5536V7.14619C9.73342 7.06286 10.31 6.4286 10.2096 5.68786C10.1367 5.15545 9.68967 4.73184 9.1318 4.5837L7.87555 4.25268C7.83288 4.2427 7.79471 4.21891 7.76696 4.185C7.7392 4.1511 7.72343 4.10897 7.72208 4.06518C7.72208 3.9587 7.81675 3.87073 7.93319 3.87073H8.75726C8.84638 3.87087 8.93464 3.88816 9.01722 3.92166C9.13828 3.97258 9.27833 3.96101 9.37138 3.87536L9.8112 3.47027C9.83087 3.45284 9.8478 3.43255 9.86143 3.41008C9.87974 3.38031 9.89197 3.3472 9.89742 3.31267C9.90286 3.27814 9.90141 3.24288 9.89314 3.20891C9.88488 3.17495 9.86996 3.14296 9.84926 3.11479C9.82856 3.08662 9.80249 3.06284 9.77254 3.04481C9.52889 2.89863 9.2561 2.80776 8.97347 2.7786V2.36842C8.97347 2.16471 8.79245 1.99805 8.57138 1.99805H8.1693C7.94824 1.99805 7.76722 2.16471 7.76722 2.36842V2.77582C7.00587 2.85916 6.4281 3.49342 6.52856 4.23416C6.60124 4.76657 7.04962 5.19018 7.60657 5.33832ZM14.417 9.59295C14.1438 9.34527 13.7179 9.36147 13.4309 9.59295L11.292 11.3036C11.0294 11.5142 10.7027 11.6286 10.3661 11.6277H7.62833C7.5301 11.6277 7.43589 11.5887 7.36644 11.5192C7.29698 11.4497 7.25796 11.3555 7.25796 11.2573C7.25796 11.1591 7.29698 11.0649 7.36644 10.9954C7.43589 10.926 7.5301 10.8869 7.62833 10.8869H9.4406C9.80865 10.8869 10.1515 10.6346 10.2103 10.2712C10.2175 10.2295 10.2211 10.1872 10.2209 10.1448C10.2206 9.94859 10.1423 9.76054 10.0035 9.62192C9.8646 9.48331 9.6764 9.40545 9.48018 9.40545H5.77648C5.15185 9.40562 4.54626 9.62048 4.0612 10.014L2.98481 10.8869H1.7024C1.60417 10.8869 1.50997 10.926 1.44051 10.9954C1.37105 11.0649 1.33203 11.1591 1.33203 11.2573V13.4795C1.33203 13.5778 1.37105 13.672 1.44051 13.7414C1.50997 13.8109 1.60417 13.8499 1.7024 13.8499H9.96097C10.2975 13.8502 10.624 13.7359 10.8869 13.5258L14.3876 10.7249C14.4718 10.6575 14.5403 10.5726 14.5883 10.4761C14.6363 10.3795 14.6626 10.2736 14.6654 10.1658C14.6682 10.058 14.6475 9.9509 14.6046 9.85196C14.5617 9.75301 14.4978 9.66462 14.4172 9.59295H14.417Z" fill="#E1DCEA"/>
</g>
<defs>
<clipPath id="clip0_5422_35294">
<rect width="13.3333" height="11.8519" fill="white" transform="translate(1.33203 2)"/>
</clipPath>
</defs>
</svg>
