<?xml version="1.0" encoding="UTF-8" standalone="no"?>
<!DOCTYPE svg PUBLIC "-//W3C//DTD SVG 1.1//EN" "http://www.w3.org/Graphics/SVG/1.1/DTD/svg11.dtd">
<svg xmlns="http://www.w3.org/2000/svg" version="1.1" viewBox="0.00 0.00 24.00 24.00">
<path fill="#fafcfc" d="
  M 24.00 9.37
  L 24.00 10.86
  L 17.24 17.78
  A 1.23 1.22 -25.0 0 1 15.14 17.02
  L 14.99 15.00
  A 0.50 0.50 0.0 0 0 14.43 14.53
  Q 6.48 15.35 1.60 21.34
  Q 0.81 22.31 0.00 21.72
  L 0.00 19.41
  Q 2.43 7.45 14.44 5.61
  Q 15.00 5.53 15.02 4.96
  L 15.10 3.26
  A 1.31 1.31 0.0 0 1 17.35 2.42
  L 24.00 9.37
  Z
  M 15.76 6.94
  Q 4.94 7.72 1.77 17.99
  Q 1.34 19.40 2.43 18.41
  Q 8.15 13.22 15.74 13.12
  Q 16.41 13.11 16.44 13.79
  L 16.51 15.93
  Q 16.53 16.68 17.06 16.15
  L 22.14 11.07
  Q 23.17 10.05 22.15 9.03
  L 17.10 3.97
  Q 16.52 3.38 16.50 4.21
  L 16.45 6.22
  A 0.74 0.73 -1.7 0 1 15.76 6.94
  Z"
/>
</svg>
