<svg width="80" height="80" viewBox="0 0 46 46" fill="none" xmlns="http://www.w3.org/2000/svg">
<path d="M12.0323 20.9091C13.7724 20.5598 15.3061 20.8478 16.5895 21.7652C17.3766 22.3278 18.1177 22.9489 18.7918 23.6105C20.3381 25.1282 22.0544 26.6961 24.1285 27.8813C25.8846 28.8858 27.5954 29.4721 29.3591 29.6757C32.9257 30.0877 36.2797 28.165 37.7033 24.8933C37.7556 24.7734 37.8838 24.4381 38.0093 24.0958C38.1376 23.7465 38.2387 23.3826 38.3112 23.0145L38.5127 21.9834C37.5192 22.4087 36.5788 22.8242 35.6258 23.1999C34.6609 23.5806 33.6612 23.819 32.6071 23.7409C31.5768 23.6649 30.667 23.2411 29.8499 22.6694C28.2625 21.5588 26.7086 20.3988 25.1686 19.2227C23.736 18.1289 22.3486 16.9779 20.6713 16.2529C18.9633 15.5139 17.1919 15.127 15.3361 15.3682C12.5928 15.7244 10.4867 17.1083 9.0492 19.4751C8.50125 20.3779 8.11154 21.3448 8 22.4031C9.15517 21.8245 10.5216 21.2124 12.033 20.9091H12.0323Z" fill="black"/>
<path d="M30.3142 30.4242C29.9712 30.4242 29.6261 30.4047 29.2775 30.3643C27.4189 30.1502 25.6217 29.5347 23.7826 28.4834C21.6403 27.2592 19.8835 25.6557 18.3044 24.1053C17.6561 23.4688 16.9429 22.8714 16.1851 22.3297C15.0481 21.5168 13.7339 21.2742 12.1682 21.5893C10.9607 21.8319 9.8383 22.2885 8.84766 22.7605C8.98848 22.7912 9.12861 22.8246 9.26594 22.8679C10.6059 23.2889 11.7687 24.046 12.8493 24.9119C14.4945 26.2309 16.0833 27.6203 17.7244 28.9449C20.3373 31.0558 23.2249 32.5721 26.6381 32.8775C28.9052 33.0803 31.0448 32.6432 33.0051 31.4769C34.8742 30.3643 36.2322 28.8598 37.2061 27.0668C35.5664 29.1722 33.0449 30.4242 30.3149 30.4242H30.3142Z" fill="black"/>
<path d="M31.6327 13C31.74 13.1603 31.8258 13.2475 31.8627 13.3514C31.9903 13.7139 32.1074 14.0799 32.2169 14.4487C32.3298 14.8286 32.5696 15.067 32.9503 15.1772C33.3302 15.2866 33.7095 15.4017 34.0832 15.5313C34.1759 15.5634 34.2449 15.6624 34.3244 15.7307C34.2435 15.8102 34.1766 15.9245 34.079 15.9622C33.7527 16.0884 33.4195 16.2041 33.0814 16.2912C32.6052 16.4139 32.3187 16.6921 32.2036 17.1745C32.12 17.5259 32.0015 17.8696 31.8788 18.2098C31.8467 18.2976 31.74 18.3583 31.6668 18.4322C31.5943 18.3576 31.4891 18.2955 31.4563 18.207C31.319 17.8361 31.1949 17.4603 31.0819 17.0811C30.969 16.7004 30.7341 16.462 30.3492 16.3554C29.9679 16.2501 29.5887 16.1337 29.2157 16.004C29.123 15.9719 29.056 15.8681 28.9766 15.7969C29.0574 15.7161 29.1237 15.5976 29.2213 15.5613C29.581 15.4275 29.9491 15.3138 30.3179 15.2051C30.7097 15.0893 30.9585 14.8495 31.0666 14.4494C31.1663 14.0785 31.2834 13.7118 31.4068 13.3479C31.4424 13.2447 31.5281 13.1583 31.6334 13H31.6327Z" fill="black"/>
<path d="M14.7961 31.5085C14.7996 32.0321 14.4036 32.4343 13.8829 32.4385C13.3433 32.4427 12.9333 32.0376 12.9375 31.5043C12.9417 30.9856 13.344 30.5911 13.8696 30.5911C14.396 30.5911 14.7933 30.985 14.7968 31.5085H14.7961Z" fill="black"/>
</svg>
