<svg width="16" height="16" viewBox="0 0 16 16" fill="none" xmlns="http://www.w3.org/2000/svg">
<path d="M8.45628 1.81268C8.45628 1.68572 8.40846 1.56397 8.32335 1.47419C8.23823 1.38442 8.12279 1.33398 8.00242 1.33398C7.88205 1.33398 7.76661 1.38442 7.68149 1.47419C7.59638 1.56397 7.54856 1.68572 7.54856 1.81268V2.75731C7.54856 2.88427 7.59638 3.00603 7.68149 3.0958C7.76661 3.18558 7.88205 3.23601 8.00242 3.23601C8.12279 3.23601 8.23823 3.18558 8.32335 3.0958C8.40846 3.00603 8.45628 2.88427 8.45628 2.75731V1.81268ZM11.5492 6.91241C11.4234 6.39506 11.1944 5.91198 10.8775 5.49547C10.5636 5.07581 10.1698 4.73012 9.72163 4.48063C9.27473 4.23261 8.78477 4.08279 8.28139 4.04022C7.77668 4.00023 7.26961 4.07197 6.79274 4.25085C6.31322 4.42721 5.87411 4.7077 5.50378 5.07421C5.13718 5.4343 4.84291 5.86839 4.63843 6.35074C4.4383 6.84033 4.33731 7.36859 4.34191 7.90172C4.32788 8.51749 4.45279 9.12796 4.70636 9.68281C4.95992 10.2377 5.33487 10.721 5.8003 11.093L6.0121 11.3037C6.19365 11.5015 6.19365 11.5015 6.18759 11.9419V12.1462C6.17995 12.2874 6.20057 12.4288 6.24811 12.561C6.29047 12.7027 6.36551 12.8323 6.46596 12.9376C6.51195 12.9874 6.56278 13.0321 6.61725 13.0717V13.7099C6.60729 13.8257 6.61914 13.9424 6.65214 14.0533C6.68513 14.1642 6.73861 14.2671 6.80949 14.3561C6.88037 14.4451 6.96724 14.5184 7.06511 14.5718C7.16298 14.6252 7.26991 14.6577 7.37973 14.6673H8.59001C8.81228 14.6478 9.01811 14.536 9.16223 14.3565C9.30635 14.1769 9.37697 13.9444 9.35855 13.7099V13.0717C9.41308 13.0324 9.46376 12.9875 9.50983 12.9376C9.60484 12.8317 9.67746 12.7053 9.72163 12.5674C9.76864 12.4328 9.78923 12.2895 9.78215 12.1462V11.91C9.78215 11.559 9.78215 11.559 9.96974 11.3356L10.1997 11.1122C10.9755 10.4758 11.4822 9.54235 11.6097 8.51445C11.6991 7.98207 11.6785 7.4356 11.5492 6.91241ZM8.48109 13.6972H7.52496V13.2951H8.48109V13.6972ZM8.00303 6.95709C7.80562 6.95709 7.61629 7.0398 7.47671 7.18703C7.33712 7.33426 7.2587 7.53394 7.2587 7.74216C7.2587 7.91143 7.19494 8.07378 7.08146 8.19348C6.96797 8.31317 6.81405 8.38042 6.65355 8.38042C6.49306 8.38042 6.33914 8.31317 6.22565 8.19348C6.11217 8.07378 6.04841 7.91143 6.04841 7.74216C6.0468 7.47095 6.09626 7.20211 6.19392 6.95122C6.29158 6.70033 6.4355 6.47238 6.61732 6.28061C6.79914 6.08883 7.01526 5.93704 7.25313 5.83404C7.491 5.73103 7.74589 5.67887 8.00303 5.68056C8.16352 5.68056 8.31744 5.74781 8.43093 5.86751C8.54441 5.9872 8.60817 6.14955 8.60817 6.31883C8.60817 6.4881 8.54441 6.65045 8.43093 6.77015C8.31744 6.88984 8.16352 6.95709 8.00303 6.95709ZM13.5461 8.55275H12.4387C12.3184 8.55275 12.2029 8.50232 12.1178 8.41254C12.0327 8.32277 11.9849 8.20101 11.9849 8.07405C11.9849 7.94709 12.0327 7.82534 12.1178 7.73556C12.2029 7.64579 12.3184 7.59535 12.4387 7.59535H13.5461C13.6665 7.59535 13.782 7.64579 13.8671 7.73556C13.9522 7.82534 14 7.94709 14 8.07405C14 8.20101 13.9522 8.32277 13.8671 8.41254C13.782 8.50232 13.6665 8.55275 13.5461 8.55275ZM11.3192 4.71678C11.2596 4.71708 11.2005 4.70481 11.1454 4.6807C11.0903 4.65659 11.0404 4.62112 10.9985 4.57637C10.9135 4.48661 10.8658 4.36494 10.8658 4.23809C10.8658 4.11123 10.9135 3.98956 10.9985 3.89981L11.7852 3.07006C11.8712 2.98551 11.985 2.93947 12.1026 2.94166C12.2202 2.94385 12.3323 2.99409 12.4155 3.08179C12.4987 3.1695 12.5463 3.28782 12.5484 3.41184C12.5504 3.53585 12.5068 3.65588 12.4266 3.74662L11.6399 4.57637C11.5982 4.62141 11.5483 4.65707 11.4932 4.68121C11.4381 4.70534 11.3789 4.71744 11.3192 4.71678ZM12.711 12.6568C12.5912 12.654 12.4768 12.6039 12.3903 12.5164L11.6036 11.6866C11.5505 11.631 11.5112 11.5624 11.4892 11.4869C11.4673 11.4115 11.4634 11.3314 11.4779 11.2539C11.4924 11.1765 11.5248 11.104 11.5723 11.043C11.6198 10.9819 11.6809 10.9342 11.7501 10.9041C11.8331 10.8672 11.9248 10.8576 12.0131 10.8765C12.1014 10.8954 12.1823 10.9419 12.2451 11.0101L13.0318 11.8398C13.0746 11.8838 13.1086 11.9364 13.1319 11.9945C13.1551 12.0526 13.1671 12.115 13.1671 12.1781C13.1671 12.2411 13.1551 12.3036 13.1319 12.3617C13.1086 12.4198 13.0746 12.4724 13.0318 12.5164C12.9467 12.6062 12.8314 12.6567 12.711 12.6568ZM4.69289 4.71678C4.57256 4.71667 4.4572 4.66616 4.37216 4.57637L3.58548 3.74662C3.50041 3.65606 3.45295 3.53356 3.45351 3.40609C3.45408 3.27861 3.50264 3.15659 3.5885 3.06687C3.67437 2.97715 3.7905 2.92709 3.91137 2.92769C4.03223 2.92828 4.14792 2.9795 4.23298 3.07006L5.01362 3.89981C5.07701 3.96675 5.12017 4.05201 5.13765 4.14481C5.15513 4.23762 5.14614 4.3338 5.11182 4.42122C5.0775 4.50864 5.01939 4.58337 4.94483 4.63597C4.87027 4.68858 4.7826 4.7167 4.69289 4.71678ZM3.30711 12.6568C3.24733 12.6582 3.18793 12.6465 3.1327 12.6223C3.07747 12.5981 3.02764 12.562 2.98638 12.5164C2.90139 12.4266 2.85365 12.3049 2.85365 12.1781C2.85365 12.0512 2.90139 11.9296 2.98638 11.8398L3.77307 11.0101C3.85911 10.9255 3.9729 10.8795 4.09048 10.8817C4.20806 10.8839 4.32025 10.9341 4.4034 11.0218C4.48656 11.1095 4.53419 11.2278 4.53626 11.3518C4.53834 11.4759 4.49469 11.5959 4.41452 11.6866L3.63389 12.5228C3.54499 12.6095 3.4282 12.6574 3.30711 12.6568ZM3.56127 8.55275H2.45386C2.33349 8.55275 2.21805 8.50232 2.13293 8.41254C2.04782 8.32277 2 8.20101 2 8.07405C2 7.94709 2.04782 7.82534 2.13293 7.73556C2.21805 7.64579 2.33349 7.59535 2.45386 7.59535H3.56127C3.68164 7.59535 3.79708 7.64579 3.8822 7.73556C3.96731 7.82534 4.01513 7.94709 4.01513 8.07405C4.01513 8.20101 3.96731 8.32277 3.8822 8.41254C3.79708 8.50232 3.68164 8.55275 3.56127 8.55275Z" fill="#E1DCEA"/>
</svg>
