<svg xmlns="http://www.w3.org/2000/svg" width="20" height="20" viewBox="0 0 20 20" fill="none">
    <g clip-path="url(#clip0_2804_1217)">
        <path d="M10 20C15.5417 20 20 15.5417 20 10C20 4.4583 15.5417 0 10 0C4.4583 0 0 4.4583 0 10C0 15.5417 4.4583 20 10 20Z" fill="#2775CA"/>
        <path d="M12.7513 11.5835C12.7513 10.1252 11.8763 9.6252 10.1263 9.4169C8.87627 9.2502 8.62627 8.9169 8.62627 8.3335C8.62627 7.7501 9.04297 7.3752 9.87627 7.3752C10.6263 7.3752 11.043 7.6252 11.2513 8.2502C11.293 8.3752 11.418 8.4585 11.543 8.4585H12.2096C12.3763 8.4585 12.5013 8.3335 12.5013 8.1669V8.1252C12.3346 7.2085 11.5846 6.5002 10.6263 6.4169V5.4169C10.6263 5.2502 10.5013 5.1252 10.293 5.0835H9.66797C9.50127 5.0835 9.37627 5.2085 9.33457 5.4169V6.3752C8.08457 6.5419 7.29297 7.3752 7.29297 8.4169C7.29297 9.7919 8.12627 10.3335 9.87627 10.5419C11.043 10.7502 11.418 11.0002 11.418 11.6669C11.418 12.3336 10.8346 12.7919 10.043 12.7919C8.95957 12.7919 8.58457 12.3335 8.45957 11.7085C8.41797 11.5419 8.29297 11.4585 8.16797 11.4585H7.45957C7.29297 11.4585 7.16797 11.5835 7.16797 11.7502V11.7919C7.33457 12.8335 8.00127 13.5835 9.37627 13.7919V14.7919C9.37627 14.9585 9.50127 15.0835 9.70957 15.1252H10.3346C10.5013 15.1252 10.6263 15.0002 10.668 14.7919V13.7919C11.918 13.5835 12.7513 12.7085 12.7513 11.5835Z" fill="white"/>
        <path d="M7.87581 15.9581C4.62581 14.7915 2.95911 11.1665 4.16751 7.9581C4.79251 6.2081 6.16751 4.8748 7.87581 4.2498C8.04251 4.1665 8.12581 4.0415 8.12581 3.8331V3.2498C8.12581 3.0831 8.04251 2.9581 7.87581 2.9165C7.83411 2.9165 7.75081 2.9165 7.70911 2.9581C3.75081 4.2081 1.58411 8.4165 2.83411 12.3748C3.58411 14.7081 5.37581 16.4998 7.70911 17.2498C7.87581 17.3331 8.04251 17.2498 8.08411 17.0831C8.12581 17.0415 8.12581 16.9998 8.12581 16.9165V16.3331C8.12581 16.2081 8.00081 16.0415 7.87581 15.9581ZM12.2925 2.9581C12.1258 2.8748 11.9591 2.9581 11.9175 3.1248C11.8758 3.1665 11.8758 3.2081 11.8758 3.2915V3.8748C11.8758 4.0415 12.0008 4.2081 12.1258 4.2915C15.3758 5.4581 17.0425 9.0831 15.8341 12.2915C15.2091 14.0415 13.8341 15.3748 12.1258 15.9998C11.9591 16.0831 11.8758 16.2081 11.8758 16.4165V16.9998C11.8758 17.1665 11.9591 17.2915 12.1258 17.3331C12.1675 17.3331 12.2508 17.3331 12.2925 17.2915C16.2508 16.0415 18.4175 11.8331 17.1675 7.8748C16.4175 5.4998 14.5841 3.7081 12.2925 2.9581Z" fill="white"/>
    </g>
    <defs>
        <clipPath id="clip0_2804_1217">
            <rect width="20" height="20" fill="white"/>
        </clipPath>
    </defs>
</svg>