<svg width="46" height="46" viewBox="0 0 46 46" fill="none" xmlns="http://www.w3.org/2000/svg">
<circle cx="23" cy="23" r="22.5" fill="url(#paint0_linear_975_633)"/>
<circle cx="23" cy="23" r="22.5" stroke="url(#paint1_linear_975_633)" style="mix-blend-mode:overlay"/>
<path d="M29.5002 15.1101L24.5102 13.2401C23.6802 12.9301 22.3202 12.9301 21.4902 13.2401L16.5002 15.1101C15.3502 15.5401 14.4102 16.9001 14.4102 18.1201V25.5501C14.4102 26.7301 15.1902 28.2801 16.1402 28.9901L20.4402 32.2001C21.8502 33.2601 24.1702 33.2601 25.5802 32.2001L29.8802 28.9901C30.8302 28.2801 31.6102 26.7301 31.6102 25.5501V18.1201C31.5902 16.9001 30.6502 15.5401 29.5002 15.1101ZM22.9302 18.0301C24.1102 18.0301 25.0702 18.9901 25.0702 20.1701C25.0702 21.3301 24.1602 22.2601 23.0102 22.3001H22.9902H22.9702C22.9502 22.3001 22.9302 22.3001 22.9102 22.3001C21.7102 22.2601 20.8102 21.3301 20.8102 20.1701C20.8002 18.9901 21.7602 18.0301 22.9302 18.0301ZM25.1902 27.3601C24.5802 27.7601 23.7902 27.9701 23.0002 27.9701C22.2102 27.9701 21.4102 27.7701 20.8102 27.3601C20.2402 26.9801 19.9302 26.4601 19.9202 25.8901C19.9202 25.3301 20.2402 24.7901 20.8102 24.4101C22.0202 23.6101 23.9902 23.6101 25.2002 24.4101C25.7702 24.7901 26.0902 25.3101 26.0902 25.8801C26.0802 26.4401 25.7602 26.9801 25.1902 27.3601Z" fill="#101012"/>
<defs>
<linearGradient id="paint0_linear_975_633" x1="-0.0543732" y1="23" x2="45.9456" y2="23" gradientUnits="userSpaceOnUse">
<stop stop-color="#6AFFAF"/>
<stop offset="1" stop-color="#5CE3FE"/>
</linearGradient>
<linearGradient id="paint1_linear_975_633" x1="17.3937" y1="31.9063" x2="37.9468" y2="2.79559" gradientUnits="userSpaceOnUse">
<stop stop-opacity="0.5"/>
<stop offset="1" stop-color="white" stop-opacity="0.5"/>
</linearGradient>
</defs>
</svg>
