<svg width="46" height="46" viewBox="0 0 46 46" fill="none" xmlns="http://www.w3.org/2000/svg">
<circle cx="23" cy="23" r="22.5" fill="url(#paint0_linear_975_650)"/>
<circle cx="23" cy="23" r="22.5" stroke="url(#paint1_linear_975_650)" style="mix-blend-mode:overlay"/>
<path d="M32.5589 21.7396L31.1989 20.1596C30.9389 19.8596 30.7289 19.2996 30.7289 18.8996V17.1996C30.7289 16.1396 29.8589 15.2696 28.7989 15.2696H27.0989C26.7089 15.2696 26.1389 15.0596 25.8389 14.7996L24.2589 13.4396C23.5689 12.8496 22.4389 12.8496 21.7389 13.4396L20.1689 14.8096C19.8689 15.0596 19.2989 15.2696 18.9089 15.2696H17.1789C16.1189 15.2696 15.2489 16.1396 15.2489 17.1996V18.9096C15.2489 19.2996 15.0389 19.8596 14.7889 20.1596L13.4389 21.7496C12.8589 22.4396 12.8589 23.5596 13.4389 24.2496L14.7889 25.8396C15.0389 26.1396 15.2489 26.6996 15.2489 27.0896V28.7996C15.2489 29.8596 16.1189 30.7296 17.1789 30.7296H18.9089C19.2989 30.7296 19.8689 30.9396 20.1689 31.1996L21.7489 32.5596C22.4389 33.1496 23.5689 33.1496 24.2689 32.5596L25.8489 31.1996C26.1489 30.9396 26.7089 30.7296 27.1089 30.7296H28.8089C29.8689 30.7296 30.7389 29.8596 30.7389 28.7996V27.0996C30.7389 26.7096 30.9489 26.1396 31.2089 25.8396L32.5689 24.2596C33.1489 23.5696 33.1489 22.4296 32.5589 21.7396ZM27.1589 21.1096L22.3289 25.9396C22.1889 26.0796 21.9989 26.1596 21.7989 26.1596C21.5989 26.1596 21.4089 26.0796 21.2689 25.9396L18.8489 23.5196C18.5589 23.2296 18.5589 22.7496 18.8489 22.4596C19.1389 22.1696 19.6189 22.1696 19.9089 22.4596L21.7989 24.3496L26.0989 20.0496C26.3889 19.7596 26.8689 19.7596 27.1589 20.0496C27.4489 20.3396 27.4489 20.8196 27.1589 21.1096Z" fill="#101012"/>
<defs>
<linearGradient id="paint0_linear_975_650" x1="-0.0543732" y1="23" x2="45.9456" y2="23" gradientUnits="userSpaceOnUse">
<stop stop-color="#6AFFAF"/>
<stop offset="1" stop-color="#5CE3FE"/>
</linearGradient>
<linearGradient id="paint1_linear_975_650" x1="17.3937" y1="31.9063" x2="37.9468" y2="2.79559" gradientUnits="userSpaceOnUse">
<stop stop-opacity="0.5"/>
<stop offset="1" stop-color="white" stop-opacity="0.5"/>
</linearGradient>
</defs>
</svg>
