<svg xmlns="http://www.w3.org/2000/svg" width="24" height="24" viewBox="0 0 24 24" fill="none">
  <path d="M21.5589 10.7396L20.1989 9.15957C19.9389 8.85957 19.7289 8.29957 19.7289 7.89957V6.19957C19.7289 5.13957 18.8589 4.26957 17.7989 4.26957H16.0989C15.7089 4.26957 15.1389 4.05957 14.8389 3.79957L13.2589 2.43957C12.5689 1.84957 11.4389 1.84957 10.7389 2.43957L9.16891 3.80957C8.86891 4.05957 8.29891 4.26957 7.90891 4.26957H6.17891C5.11891 4.26957 4.24891 5.13957 4.24891 6.19957V7.90957C4.24891 8.29957 4.03891 8.85957 3.78891 9.15957L2.43891 10.7496C1.85891 11.4396 1.85891 12.5596 2.43891 13.2496L3.78891 14.8396C4.03891 15.1396 4.24891 15.6996 4.24891 16.0896V17.7996C4.24891 18.8596 5.11891 19.7296 6.17891 19.7296H7.90891C8.29891 19.7296 8.86891 19.9396 9.16891 20.1996L10.7489 21.5596C11.4389 22.1496 12.5689 22.1496 13.2689 21.5596L14.8489 20.1996C15.1489 19.9396 15.7089 19.7296 16.1089 19.7296H17.8089C18.8689 19.7296 19.7389 18.8596 19.7389 17.7996V16.0996C19.7389 15.7096 19.9489 15.1396 20.2089 14.8396L21.5689 13.2596C22.1489 12.5696 22.1489 11.4296 21.5589 10.7396ZM16.1589 10.1096L11.3289 14.9396C11.1889 15.0796 10.9989 15.1596 10.7989 15.1596C10.5989 15.1596 10.4089 15.0796 10.2689 14.9396L7.84891 12.5196C7.55891 12.2296 7.55891 11.7496 7.84891 11.4596C8.13891 11.1696 8.61891 11.1696 8.90891 11.4596L10.7989 13.3496L15.0989 9.04957C15.3889 8.75957 15.8689 8.75957 16.1589 9.04957C16.4489 9.33957 16.4489 9.81957 16.1589 10.1096Z" fill="#101012"/>
</svg>