<svg width="145" height="48" viewBox="0 0 145 48" fill="none" xmlns="http://www.w3.org/2000/svg">
<path d="M35.0176 9.53906L49.7229 37.2957H53.3705L68.0759 9.53906H64.3892L51.587 33.6872L38.7849 9.53906H35.0176Z" fill="#F4FAFF"/>
<path d="M99.5246 9.53906V32.4192L76.8913 9.53906H73.2852V37.2957H76.5346V13.7804L99.8422 37.2957H102.776V9.53906H99.5246Z" fill="#F4FAFF"/>
<path d="M137.354 9.53906V24.0123C137.354 30.8336 133.272 35.0358 126.057 35.0358C118.803 35.0358 114.721 30.8336 114.721 24.0123V9.53906H111.391V24.2102C111.391 32.2995 116.504 38.1288 126.057 38.1288C135.61 38.1288 140.684 32.2995 140.684 24.2102V9.53906H137.354Z" fill="#F4FAFF"/>
<path d="M36.467 37.2053L21.7568 9.53906H18.1067L3.39648 37.2053H7.0832L19.8902 13.1354L32.6972 37.2053H36.467Z" fill="#F4FAFF"/>
</svg>
