<svg width="145" height="48" viewBox="0 0 145 48" fill="none" xmlns="http://www.w3.org/2000/svg">
<path opacity="0.956" fill-rule="evenodd" clip-rule="evenodd" d="M13.3424 6.40106C14.3608 6.40106 15.3792 6.40106 16.3976 6.40106C17.9542 6.87618 19.1522 7.83467 19.9919 9.27652C17.6676 9.62419 16.2898 10.9421 15.8584 13.2303C15.1639 12.9956 14.475 12.9956 13.7917 13.2303C13.4261 10.9179 12.0782 9.59998 9.74805 9.27652C10.5862 7.83637 11.7844 6.87788 13.3424 6.40106Z" fill="#F4FAFF"/>
<path opacity="0.966" fill-rule="evenodd" clip-rule="evenodd" d="M12.9821 13.41C17.8134 13.0132 21.9768 14.451 25.4724 17.7232C26.4091 18.7568 26.9483 19.9549 27.0899 21.3175C26.7549 21.8041 26.3056 21.9538 25.742 21.7668C22.0814 20.6764 18.4272 19.5681 14.7793 18.4421C11.2023 19.6044 7.60796 20.7127 3.99632 21.7668C2.83165 22.0107 2.38236 21.5614 2.64845 20.4189C3.97467 17.4753 6.16122 15.4685 9.2081 14.3984C10.4686 13.986 11.7266 13.6565 12.9821 13.41Z" fill="#F4FAFF"/>
<path opacity="0.971" fill-rule="evenodd" clip-rule="evenodd" d="M37.4238 17.1841C40.7791 17.1541 44.1337 17.1841 47.4879 17.2739C52.4293 17.9026 53.9568 20.5085 52.0707 25.0916C51.5016 25.5409 50.9326 25.9902 50.3634 26.4395C53.4576 28.0535 54.2663 30.4797 52.7896 33.718C51.4543 35.4188 49.6871 36.2876 47.4879 36.3239C44.1337 36.4137 40.7791 36.4437 37.4238 36.4137C37.4238 30.0038 37.4238 23.594 37.4238 17.1841ZM41.5573 20.419C43.3635 20.3594 45.1606 20.4493 46.9488 20.6885C48.583 21.3289 49.0323 22.4371 48.2967 24.0133C47.9459 24.4435 47.4966 24.7131 46.9488 24.822C45.1527 24.9119 43.3555 24.9417 41.5573 24.9119C41.5573 23.4143 41.5573 21.9166 41.5573 20.419ZM41.5573 28.3265C43.4752 28.2965 45.3923 28.3265 47.3082 28.4164C49.18 29.0567 49.6893 30.2847 48.8358 32.1005C48.3921 32.4873 47.883 32.7569 47.3082 32.9093C45.3923 32.9991 43.4752 33.0291 41.5573 32.9991C41.5573 31.4415 41.5573 29.8841 41.5573 28.3265Z" fill="#F4FAFF"/>
<path opacity="0.978" fill-rule="evenodd" clip-rule="evenodd" d="M24.4843 40.5472C22.6871 40.5472 20.8899 40.5472 19.0928 40.5472C18.972 40.4093 18.8222 40.2895 18.6435 40.1877C18.5237 38.3906 18.5237 36.5934 18.6435 34.7962C18.8446 33.9446 19.2939 33.2557 19.9913 32.7295C21.1579 32.1763 22.2962 31.5772 23.406 30.9323C24.0515 30.4074 24.5606 29.7784 24.9335 29.0453C25.0744 28.4594 25.0444 27.8903 24.8437 27.338C22.261 26.4233 19.8348 26.7527 17.5652 28.3265C17.1709 28.8753 16.8714 29.4745 16.6666 30.1236C16.4134 31.37 16.2337 32.628 16.1274 33.8977C15.6043 34.5765 14.9154 34.7862 14.0607 34.5267C13.8448 34.3644 13.695 34.1548 13.6114 33.8977C13.4023 32.5839 13.2225 31.2659 13.0723 29.9439C12.5646 28.3238 11.4563 27.3952 9.74751 27.1583C8.38046 26.7162 7.00263 26.6564 5.61403 26.9786C4.97681 27.1067 4.61738 27.4962 4.53573 28.1467C4.78764 29.3906 5.44661 30.379 6.51262 31.1121C7.6669 31.6769 8.8051 32.2759 9.92723 32.9092C10.4292 33.4629 10.8186 34.0919 11.0954 34.7962C11.2152 36.5336 11.2152 38.2707 11.0954 40.008C10.97 40.2221 10.8202 40.4018 10.6461 40.5472C8.84893 40.5472 7.05176 40.5472 5.2546 40.5472C3.21491 40.0645 1.77718 38.8665 0.941406 36.9528C0.941406 32.5798 0.941406 28.2066 0.941406 23.8335C1.35425 23.153 1.9533 22.7037 2.73857 22.4857C6.74693 21.289 10.7606 20.1209 14.7796 18.9812C19.2802 20.1064 23.7133 21.4542 28.0786 23.0248C28.2883 23.3543 28.4979 23.6838 28.7076 24.0133C28.8275 28.2666 28.8275 32.5198 28.7076 36.7731C27.9963 38.8334 26.5886 40.0914 24.4843 40.5472Z" fill="#F4FAFF"/>
<path opacity="0.953" fill-rule="evenodd" clip-rule="evenodd" d="M63.1242 22.2161C63.9714 22.1897 64.8102 22.2496 65.6403 22.3958C65.6403 23.6538 65.6403 24.9118 65.6403 26.1698C63.9247 25.5078 62.3671 25.7473 60.9676 26.8887C60.6573 27.3896 60.4475 27.9287 60.3386 28.5062C60.2488 31.1413 60.2188 33.7772 60.2488 36.4137C58.811 36.4137 57.3733 36.4137 55.9356 36.4137C55.9834 31.798 55.9235 27.1852 55.7559 22.5755C57.1337 22.5755 58.5115 22.5755 59.8893 22.5755C59.9706 23.2338 60.0604 23.8928 60.1589 24.5524C60.8368 23.362 61.8252 22.5833 63.1242 22.2161Z" fill="#F4FAFF"/>
<path opacity="0.965" fill-rule="evenodd" clip-rule="evenodd" d="M71.3901 22.2161C73.5307 21.9565 75.298 22.6155 76.6917 24.193C76.8907 23.7032 77.0406 23.194 77.141 22.6654C78.4576 22.5756 79.7755 22.5456 81.0948 22.5755C80.933 27.186 80.873 31.7986 80.9151 36.4137C79.4773 36.4137 78.0396 36.4137 76.6019 36.4137C76.6314 35.9308 76.6013 35.4515 76.512 34.976C74.7247 36.5905 72.658 37.0398 70.3118 36.3238C67.4441 34.9344 66.1262 32.6281 66.358 29.4047C66.1905 25.653 67.8678 23.2567 71.3901 22.2161ZM73.367 25.451C75.7788 25.6796 76.9169 27.0275 76.7816 29.4946C76.6925 32.5232 75.1947 33.7214 72.2887 33.0889C71.095 32.2098 70.5559 31.0116 70.6712 29.4946C70.4865 27.3678 71.3851 26.02 73.367 25.451Z" fill="#F4FAFF"/>
<path opacity="0.965" fill-rule="evenodd" clip-rule="evenodd" d="M88.4617 22.2161C90.6289 21.9697 92.4561 22.6287 93.943 24.193C93.9916 23.7034 94.0814 23.2242 94.2126 22.7553C95.5853 22.576 96.963 22.5161 98.3461 22.5756C98.173 27.1837 98.1132 31.7964 98.1664 36.4137C96.7286 36.4137 95.2909 36.4137 93.8532 36.4137C93.8828 35.8713 93.8528 35.3322 93.7633 34.7963C91.9669 36.5801 89.8403 37.0893 87.3834 36.3239C85.1387 35.2741 83.8507 33.507 83.5195 31.0222C83.0979 28.3053 83.7269 25.8791 85.4065 23.7437C86.3432 23.0358 87.3616 22.5265 88.4617 22.2161ZM90.6183 25.451C92.9747 25.7434 94.053 27.0913 93.8532 29.4946C93.7739 32.5119 92.2763 33.7101 89.3603 33.089C88.1612 32.1579 87.622 30.9297 87.7428 29.4048C87.5832 27.2137 88.5416 25.8958 90.6183 25.451Z" fill="#F4FAFF"/>
<path opacity="0.963" fill-rule="evenodd" clip-rule="evenodd" d="M120.99 22.2161C127.075 21.9208 129.92 24.7962 129.527 30.8424C129 33.8856 127.232 35.7726 124.225 36.5035C121.037 37.1679 118.371 36.2994 116.228 33.8976C114.747 31.0545 114.687 28.179 116.048 25.2712C117.292 23.5866 118.939 22.5682 120.99 22.2161ZM122.068 25.4509C124.325 25.7584 125.403 27.0765 125.303 29.4047C125.296 32.3806 123.858 33.6086 120.99 33.0889C119.778 32.1844 119.239 30.9562 119.373 29.4047C119.217 27.3094 120.115 25.9915 122.068 25.4509Z" fill="#F4FAFF"/>
<path opacity="0.955" fill-rule="evenodd" clip-rule="evenodd" d="M143.277 30.6628C143.277 31.6212 143.277 32.5798 143.277 33.5383C142.392 35.1663 141.015 36.1548 139.144 36.5036C136.368 36.9601 133.763 36.5108 131.326 35.1557C131.536 34.1941 131.806 33.2354 132.135 32.2803C133.733 33.0124 135.411 33.4917 137.167 33.718C138.045 33.7088 138.793 33.4094 139.413 32.8194C139.623 32.0675 139.353 31.5583 138.605 31.2918C136.829 31.0088 135.092 30.5895 133.393 30.0338C131.699 28.8462 131.19 27.2586 131.865 25.2713C132.815 23.5506 134.283 22.5622 136.268 22.306C138.188 22.0628 140.045 22.3024 141.84 23.0249C142.29 23.2803 142.71 23.5798 143.098 23.9234C142.715 24.8395 142.265 25.708 141.75 26.5293C139.931 25.2381 137.984 24.9685 135.909 25.7206C135.214 26.561 135.394 27.22 136.448 27.6975C138.237 27.9185 139.974 28.3378 141.66 28.9555C142.362 29.3879 142.901 29.9569 143.277 30.6628Z" fill="#F4FAFF"/>
<path opacity="0.964" fill-rule="evenodd" clip-rule="evenodd" d="M99.2461 22.5755C100.749 22.516 102.246 22.5759 103.739 22.7553C104.798 25.5312 105.906 28.2869 107.064 31.0222C108.237 28.281 109.375 25.5254 110.478 22.7553C111.871 22.5788 113.278 22.5189 114.702 22.5755C112.808 27.1434 110.861 31.6961 108.861 36.234C107.603 36.4735 106.345 36.4735 105.087 36.234C103.017 31.7362 101.069 27.1835 99.2461 22.5755Z" fill="#F4FAFF"/>
</svg>
