<svg width="145" height="48" viewBox="0 0 145 48" fill="none" xmlns="http://www.w3.org/2000/svg">
<g clip-path="url(#clip0_987_4586)">
<g clip-path="url(#clip1_987_4586)">
<mask id="mask0_987_4586" style="mask-type:luminance" maskUnits="userSpaceOnUse" x="-3" y="9" width="150" height="29">
<path d="M146.869 9.97815H-2.56445V37.1479H146.869V9.97815Z" fill="white"/>
</mask>
<g mask="url(#mask0_987_4586)">
<path d="M10.165 22.3613L8.98438 24.7678H14.5807L15.8312 22.3613L10.165 22.3613Z" fill="#F4FAFF"/>
<path d="M17.6679 26.691L17.0195 27.9489H5.40798L4.22852 30.3554H15.8138L15.8161 30.3509L20.5861 30.3467L17.6679 26.691Z" fill="#F4FAFF"/>
<path d="M9.03305 16.7706L4.23047 16.7749L7.14855 20.4305L7.79267 19.1793H19.3302L20.5815 16.7727H9.0309L9.03305 16.7706Z" fill="#F4FAFF"/>
<path d="M30.5117 16.7927H35.4747L34.2703 23.6157C34.0488 24.8499 33.675 25.8969 33.149 26.7568C32.6367 27.6027 31.993 28.2961 31.2177 28.8369C30.4424 29.3639 29.5427 29.7523 28.5182 30.0018C27.4937 30.2375 26.3724 30.3554 25.1541 30.3554H22.7246L23.4514 26.2783H26.317C27.2723 26.2089 27.9714 25.9524 28.4144 25.5086C28.8712 25.0509 29.1689 24.4201 29.3073 23.6157L30.5117 16.7927Z" fill="#F4FAFF"/>
<path d="M47.5103 25.363H40.4499L40.3044 26.2783H47.9255L47.1988 30.3554H34.6562L37.0443 16.7927H49.5867L48.8599 20.8698H41.2389L41.0936 21.7851H48.1539L47.5103 25.363Z" fill="#F4FAFF"/>
<path d="M55.3639 20.8698H58.541C59.0256 20.8698 59.3579 20.9808 59.5379 21.2027C59.7316 21.4245 59.8286 21.7158 59.8286 22.0763C59.8286 22.3259 59.8078 22.5825 59.7663 22.846L59.4963 24.3229C59.4548 24.5865 59.3925 24.836 59.3094 25.0719C59.2402 25.3076 59.1294 25.5155 58.9771 25.6958C58.8387 25.8761 58.6588 26.0217 58.4372 26.1327C58.2158 26.2297 57.9389 26.2783 57.6067 26.2783H54.4294L55.3639 20.8698ZM48.7812 30.3554H59.5585C59.9601 30.3554 60.4031 30.2375 60.8875 30.0018C61.386 29.7661 61.8567 29.4679 62.2997 29.1074C62.7427 28.7328 63.1233 28.3169 63.4418 27.8592C63.7741 27.4015 63.9816 26.9509 64.0648 26.5071L65.0823 20.641C65.0961 20.5717 65.1031 20.5093 65.1031 20.4538C65.1169 20.3845 65.1239 20.3151 65.1239 20.2458C65.1239 19.8297 65.0269 19.4206 64.8331 19.0185C64.6393 18.6024 64.3832 18.228 64.0648 17.8952C63.7602 17.5623 63.421 17.2988 63.0473 17.1047C62.6734 16.8967 62.3066 16.7927 61.9466 16.7927H51.1693L48.7812 30.3554Z" fill="#F4FAFF"/>
<path d="M69.8745 30.3554L72.2626 16.7927H67.3411L64.9531 30.3554H69.8745Z" fill="#F4FAFF"/>
<path d="M71.4492 30.3554H81.3751C81.7627 30.3554 82.1297 30.2861 82.4758 30.1474C82.8357 30.0087 83.1541 29.8146 83.4309 29.5649C83.7078 29.3154 83.9432 29.0241 84.1369 28.6913C84.3308 28.3584 84.4623 27.991 84.5316 27.5889C84.573 27.3253 84.5938 27.0687 84.5938 26.8191C84.5938 26.2645 84.49 25.7374 84.2823 25.2381C84.0886 24.739 83.8324 24.2536 83.5141 23.7821C83.1957 23.2967 82.8426 22.8183 82.455 22.3467C82.0812 21.8752 81.7144 21.3829 81.3544 20.8698H87.231L87.9578 16.7927H79.091C78.6894 16.7927 78.2949 16.8759 77.9073 17.0423C77.5196 17.1948 77.1667 17.4098 76.8483 17.6871C76.5298 17.9645 76.253 18.2973 76.0175 18.6856C75.7961 19.0601 75.6438 19.4692 75.5608 19.9129C75.5192 20.1071 75.4985 20.2735 75.4985 20.4122V20.537C75.54 21.0778 75.6785 21.6048 75.9138 22.1179C76.163 22.631 76.4538 23.1303 76.7859 23.6157C77.1182 24.0872 77.4713 24.5448 77.845 24.9886C78.2326 25.4324 78.5856 25.8622 78.9041 26.2783H72.176L71.4492 30.3554Z" fill="#F4FAFF"/>
<path d="M102.605 21.9307L101.816 16.7927H97.4548L94.776 21.9307L94.0076 16.7927H89.1484L90.9967 30.3554H95.8973L98.2854 25.0094L98.8046 30.3554H103.705L110.329 16.7927H105.263L102.605 21.9307Z" fill="#F4FAFF"/>
<path d="M117.41 28.2753H112.385L111.305 30.3554H106.238L112.863 16.7927H120.754L122.602 30.3554H117.742L117.41 28.2753ZM114.109 24.6558H116.953L116.289 20.3706L114.109 24.6558Z" fill="#F4FAFF"/>
<path d="M128.697 30.3554H123.775L126.163 16.7927H136.65C137.12 16.7927 137.563 16.8967 137.979 17.1047C138.395 17.3127 138.755 17.5901 139.059 17.9368C139.377 18.2835 139.627 18.6718 139.806 19.1017C139.987 19.5316 140.076 19.9684 140.076 20.4122C140.076 20.4954 140.07 20.5786 140.056 20.6618C140.056 20.745 140.049 20.8282 140.034 20.9114L139.744 22.5548C139.661 23.0124 139.453 23.4908 139.121 23.9901C138.789 24.4755 138.388 24.9193 137.916 25.3214C137.46 25.7235 136.961 26.0564 136.422 26.3199C135.895 26.5695 135.39 26.6943 134.906 26.6943H129.341L128.697 30.3554ZM130.047 22.6796H133.39C133.902 22.6796 134.255 22.6033 134.45 22.4508C134.642 22.2982 134.774 22.0763 134.844 21.7851L134.864 21.5771C134.864 21.3552 134.788 21.1819 134.636 21.057C134.484 20.9322 134.172 20.8698 133.701 20.8698H130.358L130.047 22.6796Z" fill="#F4FAFF"/>
</g>
</g>
</g>
<defs>
<clipPath id="clip0_987_4586">
<rect width="144.024" height="47.2549" fill="white" transform="translate(0.0722656)"/>
</clipPath>
<clipPath id="clip1_987_4586">
<rect width="149.434" height="27.1697" fill="white" transform="translate(-2.56445 9.97815)"/>
</clipPath>
</defs>
</svg>
