<svg width="145" height="48" viewBox="0 0 145 48" fill="none" xmlns="http://www.w3.org/2000/svg">
<path fill-rule="evenodd" clip-rule="evenodd" d="M69.1187 1.88269C70.1227 1.88269 71.1269 1.88269 72.1309 1.88269C72.1309 9.22508 72.1309 16.5675 72.1309 23.9099C69.8056 23.9724 67.4836 23.9097 65.1651 23.7216C66.8504 21.7535 68.639 19.8708 70.5307 18.0736C70.8215 17.2176 70.8844 16.3391 70.7189 15.4379C70.5077 15.038 70.2253 14.6929 69.8717 14.4024C64.2356 14.1244 58.5876 14.0303 52.9277 14.12C52.984 13.4412 53.2036 12.8137 53.5867 12.2373C57.1755 6.4236 62.3528 2.97204 69.1187 1.88269Z" fill="#F4FAFF"/>
<path fill-rule="evenodd" clip-rule="evenodd" d="M93.217 19.0149C93.217 21.7762 93.217 24.5374 93.217 27.2987C92.7324 29.2226 92.0735 31.1052 91.2402 32.9467C91.105 33.1257 90.9482 33.1569 90.7695 33.0408C87.2036 28.8933 83.658 24.72 80.1325 20.5211C79.9986 20.1696 80.0928 19.8872 80.4149 19.6739C82.6906 17.8651 84.8557 15.9511 86.9101 13.9317C87.0262 13.7531 86.995 13.5962 86.8159 13.4611C85.4981 13.3356 84.1802 13.3356 82.8623 13.4611C80.8665 15.1148 78.921 16.8092 77.0261 18.5443C76.7028 18.8377 76.3263 18.9946 75.8965 19.0149C75.8965 13.4297 75.8965 7.84446 75.8965 2.25922C82.3335 3.35887 87.2597 6.68491 90.6754 12.2373C91.87 14.39 92.7172 16.6492 93.217 19.0149Z" fill="#F4FAFF"/>
<path fill-rule="evenodd" clip-rule="evenodd" d="M51.0449 27.2987C51.0449 24.5374 51.0449 21.7763 51.0449 19.015C51.1812 18.6914 51.3067 18.3463 51.4215 17.9795C56.0039 17.8227 60.585 17.854 65.1649 18.0736C63.3477 19.985 61.4964 21.8678 59.611 23.7216C58.6188 25.5732 59.0895 26.8598 61.023 27.5811C65.918 27.7067 70.8129 27.7067 75.7078 27.5811C75.8937 25.5568 75.9563 23.5174 75.8961 21.4624C76.4163 21.5084 76.8241 21.7593 77.1198 22.2155C78.1751 23.8353 79.4302 25.2788 80.8852 26.5456C83.0809 29.3365 85.3714 32.0349 87.7569 34.6411C76.5242 34.8608 65.291 34.892 54.0572 34.7352C52.6955 32.3875 51.6914 29.9088 51.0449 27.2987Z" fill="#F4FAFF"/>
<path fill-rule="evenodd" clip-rule="evenodd" d="M71.3753 43.6779C71.3753 44.2427 71.3753 44.8075 71.3753 45.3723C69.9319 45.3723 68.4885 45.3723 67.0451 45.3723C66.6372 45.2409 66.292 44.9899 66.0097 44.6192C65.7819 42.999 65.6564 41.3673 65.6331 39.7243C64.8771 40.4487 64.1554 41.2018 63.4681 41.9835C64.2932 43.1198 65.109 44.2494 65.9155 45.3723C65.1625 45.3723 64.4094 45.3723 63.6563 45.3723C63.0375 44.5328 62.3786 43.717 61.6795 42.9248C61.5856 43.7383 61.5542 44.5541 61.5854 45.3723C59.1379 45.3723 56.6905 45.3723 54.243 45.3723C53.6994 44.9547 53.5426 44.3899 53.7723 43.6779C54.6823 42.768 55.5922 41.8579 56.5022 40.948C55.6259 40.8541 54.7473 40.8226 53.8665 40.8539C53.8665 40.2891 53.8665 39.7243 53.8665 39.1595C55.5812 39.0761 57.2756 39.1702 58.9497 39.4419C59.403 40.0148 59.4344 40.6108 59.0438 41.2304C58.14 41.9456 57.2928 42.7301 56.5022 43.5837C57.6301 43.6777 58.7597 43.7091 59.891 43.6779C59.891 41.4187 59.891 39.1595 59.891 36.9003C60.4558 36.9003 61.0206 36.9003 61.5854 36.9003C61.5541 38.345 61.5854 39.7885 61.6795 41.2304C62.3453 40.6278 62.9415 39.9688 63.4681 39.2536C64.2185 39.1597 64.9716 39.1282 65.7273 39.1595C65.7273 38.4064 65.7273 37.6533 65.7273 36.9003C66.4176 36.9003 67.1079 36.9003 67.7982 36.9003C67.7356 39.1004 67.7984 41.2967 67.9865 43.4896C69.1046 43.6698 70.2342 43.7325 71.3753 43.6779Z" fill="#F4FAFF"/>
<path fill-rule="evenodd" clip-rule="evenodd" d="M90.5802 45.3723C89.0114 45.3723 87.4424 45.3723 85.8736 45.3723C85.0209 44.7988 84.5502 43.983 84.4616 42.9248C84.1982 39.7083 85.6729 38.4531 88.8858 39.1595C88.8858 38.4064 88.8858 37.6533 88.8858 36.9003C89.4506 36.9003 90.0154 36.9003 90.5802 36.9003C90.5802 39.7243 90.5802 42.5483 90.5802 45.3723ZM87.3797 40.8539C87.8818 40.8539 88.3837 40.8539 88.8858 40.8539C88.8858 41.7952 88.8858 42.7365 88.8858 43.6779C88.2551 43.7089 87.6277 43.6775 87.0032 43.5837C86.1387 43.0611 85.9191 42.3395 86.3442 41.4187C86.6679 41.1609 87.013 40.9727 87.3797 40.8539Z" fill="#F4FAFF"/>
<path fill-rule="evenodd" clip-rule="evenodd" d="M77.5883 45.3723C76.2078 45.3723 74.827 45.3723 73.4465 45.3723C72.5821 45.0089 71.8918 44.4441 71.3755 43.6779C71.1607 39.9703 72.8551 38.5583 76.4587 39.4419C76.795 39.5897 77.0774 39.8092 77.3059 40.1008C77.569 41.0813 77.6631 42.0853 77.5883 43.1131C76.2021 43.0508 74.8214 43.1136 73.4465 43.3013C73.5453 43.4316 73.6709 43.5258 73.823 43.5837C75.0765 43.6779 76.3317 43.7091 77.5883 43.6779C77.5883 44.2427 77.5883 44.8075 77.5883 45.3723ZM74.0113 40.8539C74.5172 40.823 75.0193 40.8544 75.5174 40.948C75.6695 41.006 75.7951 41.1001 75.8939 41.2304C75.0853 41.449 74.2694 41.4804 73.4465 41.3245C73.6481 41.1641 73.8364 41.0073 74.0113 40.8539Z" fill="#F4FAFF"/>
<path fill-rule="evenodd" clip-rule="evenodd" d="M83.9917 45.3723C83.4269 45.3723 82.8621 45.3723 82.2973 45.3723C82.3286 43.9275 82.2973 42.4841 82.2032 41.0421C81.5642 40.8622 80.9053 40.7995 80.2264 40.8539C80.2831 42.3762 80.2202 43.8823 80.0381 45.3723C79.4733 45.3723 78.9085 45.3723 78.3437 45.3723C78.3125 43.4258 78.3437 41.4804 78.4379 39.536C78.532 39.4419 78.6261 39.3477 78.7203 39.2536C80.1786 39.0849 81.622 39.1476 83.0504 39.4419C83.3328 39.7243 83.6152 40.0067 83.8976 40.2891C83.9917 41.9823 84.023 43.6767 83.9917 45.3723Z" fill="#F4FAFF"/>
</svg>
