<svg width="1440" height="1024" viewBox="0 0 1440 1024" fill="none" xmlns="http://www.w3.org/2000/svg">
<g opacity="0.2">
<circle cx="627.009" cy="134.338" r="19.9595" transform="rotate(-10 627.009 134.338)" fill="#29282B"/>
<circle cx="565.84" cy="155.771" r="19.9595" transform="rotate(-20 565.84 155.771)" fill="#29282B"/>
<circle cx="508.453" cy="187.265" r="19.9595" transform="rotate(-30 508.453 187.265)" fill="#29282B"/>
<circle cx="456.581" cy="227.863" r="19.9595" transform="rotate(-40 456.581 227.863)" fill="#29282B"/>
<circle cx="411.811" cy="276.331" r="19.9595" transform="rotate(-50 411.811 276.331)" fill="#29282B"/>
<circle cx="375.48" cy="331.196" r="19.9595" transform="rotate(-60 375.48 331.196)" fill="#29282B"/>
<circle cx="348.735" cy="390.792" r="19.9595" transform="rotate(-70 348.735 390.792)" fill="#29282B"/>
<circle cx="332.341" cy="453.307" r="19.9595" transform="rotate(-80 332.341 453.307)" fill="#29282B"/>
<circle cx="326.819" cy="516.842" r="19.9595" transform="rotate(-90 326.819 516.842)" fill="#29282B"/>
<circle cx="337.546" cy="584.67" r="19.9595" transform="rotate(-100 337.546 584.67)" fill="#29282B"/>
<circle cx="358.988" cy="649.526" r="19.9595" transform="rotate(-110 358.988 649.526)" fill="#29282B"/>
<circle cx="390.47" cy="709.441" r="19.9595" transform="rotate(-120 390.47 709.441)" fill="#29282B"/>
<circle cx="431.066" cy="762.593" r="19.9595" transform="rotate(-130 431.066 762.593)" fill="#29282B"/>
<circle cx="479.54" cy="807.367" r="19.9595" transform="rotate(-140 479.54 807.367)" fill="#29282B"/>
<circle cx="534.397" cy="842.405" r="19.9595" transform="rotate(-150 534.397 842.405)" fill="#29282B"/>
<circle cx="593.993" cy="866.639" r="19.9595" transform="rotate(-160 593.993 866.639)" fill="#29282B"/>
<circle cx="656.521" cy="879.334" r="19.9595" transform="rotate(-170 656.521 879.334)" fill="#29282B"/>
<circle cx="720.044" cy="880.105" r="19.9595" transform="rotate(180 720.044 880.105)" fill="#29282B"/>
<circle cx="787.874" cy="874.131" r="19.9595" transform="rotate(170 787.874 874.131)" fill="#29282B"/>
<circle cx="852.726" cy="856.39" r="19.9595" transform="rotate(160 852.726 856.39)" fill="#29282B"/>
<circle cx="912.641" cy="827.423" r="19.9595" transform="rotate(150 912.641 827.423)" fill="#29282B"/>
<circle cx="965.791" cy="788.107" r="19.9595" transform="rotate(140 965.791 788.107)" fill="#29282B"/>
<circle cx="1010.57" cy="739.639" r="19.9595" transform="rotate(130 1010.57 739.639)" fill="#29282B"/>
<circle cx="1045.61" cy="683.491" r="19.9595" transform="rotate(120 1045.61 683.491)" fill="#29282B"/>
<circle cx="1069.84" cy="621.369" r="19.9595" transform="rotate(110 1069.84 621.369)" fill="#29282B"/>
<circle cx="1082.53" cy="555.161" r="19.9595" transform="rotate(100 1082.53 555.161)" fill="#29282B"/>
<circle cx="1083.31" cy="486.878" r="19.9595" transform="rotate(90 1083.31 486.878)" fill="#29282B"/>
<circle cx="1077.34" cy="423.798" r="19.9595" transform="rotate(80 1077.34 423.798)" fill="#29282B"/>
<circle cx="1059.59" cy="362.635" r="19.9595" transform="rotate(70 1059.59 362.635)" fill="#29282B"/>
<circle cx="1030.62" cy="305.247" r="19.9595" transform="rotate(60 1030.62 305.247)" fill="#29282B"/>
<circle cx="991.305" cy="253.377" r="19.9595" transform="rotate(50 991.305 253.377)" fill="#29282B"/>
<circle cx="942.839" cy="208.603" r="19.9595" transform="rotate(40 942.839 208.603)" fill="#29282B"/>
<circle cx="886.692" cy="172.283" r="19.9595" transform="rotate(30 886.692 172.283)" fill="#29282B"/>
<circle cx="824.574" cy="145.522" r="19.9595" transform="rotate(20 824.574 145.522)" fill="#29282B"/>
<circle cx="758.366" cy="129.134" r="19.9595" transform="rotate(10 758.366 129.134)" fill="#29282B"/>
<circle cx="690.073" cy="123.615" r="19.9595" fill="#29282B"/>
<circle cx="579.989" cy="90.5767" r="17.9636" transform="rotate(-15 579.989 90.5767)" fill="#29282B"/>
<circle cx="512.325" cy="121.639" r="17.9636" transform="rotate(-25 512.325 121.639)" fill="#29282B"/>
<circle cx="450.065" cy="163.795" r="17.9636" transform="rotate(-35 450.065 163.795)" fill="#29282B"/>
<circle cx="395.104" cy="215.772" r="17.9636" transform="rotate(-45 395.104 215.772)" fill="#29282B"/>
<circle cx="349.108" cy="275.985" r="17.9636" transform="rotate(-55 349.108 275.985)" fill="#29282B"/>
<circle cx="313.478" cy="342.606" r="17.9636" transform="rotate(-65 313.478 342.606)" fill="#29282B"/>
<circle cx="289.282" cy="413.609" r="17.9636" transform="rotate(-75 289.282 413.609)" fill="#29282B"/>
<circle cx="277.277" cy="486.839" r="17.9636" transform="rotate(-85 277.277 486.839)" fill="#29282B"/>
<circle cx="277.814" cy="560.074" r="17.9636" transform="rotate(-95 277.814 560.074)" fill="#29282B"/>
<circle cx="297.288" cy="636.48" r="17.9636" transform="rotate(-105 297.288 636.48)" fill="#29282B"/>
<circle cx="328.724" cy="708.34" r="17.9636" transform="rotate(-115 328.724 708.34)" fill="#29282B"/>
<circle cx="371.134" cy="773.471" r="17.9636" transform="rotate(-125 371.134 773.471)" fill="#29282B"/>
<circle cx="423.238" cy="829.884" r="17.9636" transform="rotate(-135 423.238 829.884)" fill="#29282B"/>
<circle cx="483.46" cy="875.884" r="17.9636" transform="rotate(-145 483.46 875.884)" fill="#29282B"/>
<circle cx="549.944" cy="910.066" r="17.9636" transform="rotate(-155 549.944 910.066)" fill="#29282B"/>
<circle cx="620.704" cy="931.386" r="17.9636" transform="rotate(-165 620.704 931.386)" fill="#29282B"/>
<circle cx="693.573" cy="939.198" r="17.9636" transform="rotate(-175 693.573 939.198)" fill="#29282B"/>
<circle cx="766.328" cy="933.265" r="17.9636" transform="rotate(175 766.328 933.265)" fill="#29282B"/>
<circle cx="843.198" cy="919.175" r="17.9636" transform="rotate(165 843.198 919.175)" fill="#29282B"/>
<circle cx="915.432" cy="891.928" r="17.9636" transform="rotate(155 915.432 891.928)" fill="#29282B"/>
<circle cx="980.802" cy="852.401" r="17.9636" transform="rotate(145 980.802 852.401)" fill="#29282B"/>
<circle cx="1037.35" cy="801.751" r="17.9636" transform="rotate(135 1037.35 801.751)" fill="#29282B"/>
<circle cx="1083.36" cy="741.534" r="17.9636" transform="rotate(125 1083.36 741.534)" fill="#29282B"/>
<circle cx="1117.4" cy="673.587" r="17.9636" transform="rotate(115 1117.4 673.587)" fill="#29282B"/>
<circle cx="1138.46" cy="599.961" r="17.9636" transform="rotate(105 1138.46 599.961)" fill="#29282B"/>
<circle cx="1145.91" cy="522.902" r="17.9636" transform="rotate(95 1145.91 522.902)" fill="#29282B"/>
<circle cx="1139.52" cy="444.738" r="17.9636" transform="rotate(85 1139.52 444.738)" fill="#29282B"/>
<circle cx="1125.89" cy="373.266" r="17.9636" transform="rotate(75 1125.89 373.266)" fill="#29282B"/>
<circle cx="1099.01" cy="305.237" r="17.9636" transform="rotate(65 1099.01 305.237)" fill="#29282B"/>
<circle cx="1059.72" cy="242.726" r="17.9636" transform="rotate(55 1059.72 242.726)" fill="#29282B"/>
<circle cx="1009.21" cy="187.635" r="17.9636" transform="rotate(45 1009.21 187.635)" fill="#29282B"/>
<circle cx="949.017" cy="141.641" r="17.9636" transform="rotate(35 949.017 141.641)" fill="#29282B"/>
<circle cx="880.927" cy="106.132" r="17.9636" transform="rotate(25 880.927 106.132)" fill="#29282B"/>
<circle cx="807.038" cy="82.1927" r="17.9636" transform="rotate(15 807.038 82.1927)" fill="#29282B"/>
<circle cx="729.615" cy="70.5499" r="17.9636" transform="rotate(5 729.615 70.5499)" fill="#29282B"/>
<circle cx="650.988" cy="71.5561" r="17.9636" transform="rotate(-5 650.988 71.5561)" fill="#29282B"/>
<circle cx="602.756" cy="30.6315" r="15.9676" transform="rotate(-10 602.756 30.6315)" fill="#29282B"/>
<circle cx="523.704" cy="59.2922" r="15.9676" transform="rotate(-20 523.704 59.2922)" fill="#29282B"/>
<circle cx="449.695" cy="100.943" r="15.9676" transform="rotate(-30 449.695 100.943)" fill="#29282B"/>
<circle cx="383.003" cy="154.322" r="15.9676" transform="rotate(-40 383.003 154.322)" fill="#29282B"/>
<circle cx="325.632" cy="217.806" r="15.9676" transform="rotate(-50 325.632 217.806)" fill="#29282B"/>
<circle cx="279.34" cy="289.466" r="15.9676" transform="rotate(-60 279.34 289.466)" fill="#29282B"/>
<circle cx="245.528" cy="367.124" r="15.9676" transform="rotate(-70 245.528 367.124)" fill="#29282B"/>
<circle cx="225.22" cy="448.419" r="15.9676" transform="rotate(-80 225.22 448.419)" fill="#29282B"/>
<circle cx="219.034" cy="530.883" r="15.9676" transform="rotate(-90 219.034 530.883)" fill="#29282B"/>
<circle cx="233.831" cy="618.678" r="15.9676" transform="rotate(-100 233.831 618.678)" fill="#29282B"/>
<circle cx="262.485" cy="702.467" r="15.9676" transform="rotate(-110 262.485 702.467)" fill="#29282B"/>
<circle cx="304.145" cy="779.707" r="15.9676" transform="rotate(-120 304.145 779.707)" fill="#29282B"/>
<circle cx="357.523" cy="848.048" r="15.9676" transform="rotate(-130 357.523 848.048)" fill="#29282B"/>
<circle cx="421.012" cy="905.415" r="15.9676" transform="rotate(-140 421.012 905.415)" fill="#29282B"/>
<circle cx="492.671" cy="950.066" r="15.9676" transform="rotate(-150 492.671 950.066)" fill="#29282B"/>
<circle cx="570.312" cy="980.642" r="15.9676" transform="rotate(-160 570.312 980.642)" fill="#29282B"/>
<circle cx="651.618" cy="996.217" r="15.9676" transform="rotate(-170 651.618 996.217)" fill="#29282B"/>
<circle cx="734.075" cy="996.315" r="15.9676" transform="rotate(180 734.075 996.315)" fill="#29282B"/>
<circle cx="821.889" cy="987.6" r="15.9676" transform="rotate(170 821.889 987.6)" fill="#29282B"/>
<circle cx="905.667" cy="963.672" r="15.9676" transform="rotate(160 905.667 963.672)" fill="#29282B"/>
<circle cx="982.907" cy="925.258" r="15.9676" transform="rotate(150 982.907 925.258)" fill="#29282B"/>
<circle cx="1051.24" cy="873.521" r="15.9676" transform="rotate(140 1051.24 873.521)" fill="#29282B"/>
<circle cx="1108.62" cy="810.037" r="15.9676" transform="rotate(130 1108.62 810.037)" fill="#29282B"/>
<circle cx="1153.27" cy="736.735" r="15.9676" transform="rotate(120 1153.27 736.735)" fill="#29282B"/>
<circle cx="1183.84" cy="655.841" r="15.9676" transform="rotate(110 1183.84 655.841)" fill="#29282B"/>
<circle cx="1199.42" cy="569.813" r="15.9676" transform="rotate(100 1199.42 569.813)" fill="#29282B"/>
<circle cx="1199.52" cy="481.265" r="15.9676" transform="rotate(90 1199.52 481.265)" fill="#29282B"/>
<circle cx="1190.8" cy="399.554" r="15.9676" transform="rotate(80 1190.8 399.554)" fill="#29282B"/>
<circle cx="1166.88" cy="320.497" r="15.9676" transform="rotate(70 1166.88 320.497)" fill="#29282B"/>
<circle cx="1128.45" cy="246.496" r="15.9676" transform="rotate(60 1128.45 246.496)" fill="#29282B"/>
<circle cx="1076.71" cy="179.797" r="15.9676" transform="rotate(50 1076.71 179.797)" fill="#29282B"/>
<circle cx="1013.24" cy="122.429" r="15.9676" transform="rotate(40 1013.24 122.429)" fill="#29282B"/>
<circle cx="939.942" cy="76.1344" r="15.9676" transform="rotate(30 939.942 76.1344)" fill="#29282B"/>
<circle cx="859.036" cy="42.3206" r="15.9676" transform="rotate(20 859.036 42.3206)" fill="#29282B"/>
<circle cx="773.015" cy="22.0156" r="15.9676" transform="rotate(10 773.015 22.0156)" fill="#29282B"/>
<circle cx="684.46" cy="15.8341" r="15.9676" fill="#29282B"/>
<circle cx="546.51" cy="-10.6271" r="13.9717" transform="rotate(-15 546.51 -10.6271)" fill="#29282B"/>
<circle cx="461.642" cy="29.1942" r="13.9717" transform="rotate(-25 461.642 29.1942)" fill="#29282B"/>
<circle cx="383.74" cy="82.9196" r="13.9717" transform="rotate(-35 383.74 82.9196)" fill="#29282B"/>
<circle cx="315.107" cy="148.922" r="13.9717" transform="rotate(-45 315.107 148.922)" fill="#29282B"/>
<circle cx="257.869" cy="225.192" r="13.9717" transform="rotate(-55 257.869 225.192)" fill="#29282B"/>
<circle cx="213.767" cy="309.416" r="13.9717" transform="rotate(-65 213.767 309.416)" fill="#29282B"/>
<circle cx="184.127" cy="399.03" r="13.9717" transform="rotate(-75 184.127 399.03)" fill="#29282B"/>
<circle cx="169.843" cy="491.309" r="13.9717" transform="rotate(-85 169.843 491.309)" fill="#29282B"/>
<circle cx="171.369" cy="583.452" r="13.9717" transform="rotate(-95 171.369 583.452)" fill="#29282B"/>
<circle cx="196.669" cy="679.403" r="13.9717" transform="rotate(-105 196.669 679.403)" fill="#29282B"/>
<circle cx="236.926" cy="769.483" r="13.9717" transform="rotate(-115 236.926 769.483)" fill="#29282B"/>
<circle cx="290.986" cy="850.983" r="13.9717" transform="rotate(-125 290.986 850.983)" fill="#29282B"/>
<circle cx="357.148" cy="921.42" r="13.9717" transform="rotate(-135 357.148 921.42)" fill="#29282B"/>
<circle cx="433.409" cy="978.653" r="13.9717" transform="rotate(-145 433.409 978.653)" fill="#29282B"/>
<circle cx="517.476" cy="1020.94" r="13.9717" transform="rotate(-155 517.476 1020.94)" fill="#29282B"/>
<circle cx="886.677" cy="1029.22" r="13.9717" transform="rotate(165 886.677 1029.22)" fill="#29282B"/>
<circle cx="977.226" cy="994.187" r="13.9717" transform="rotate(155 977.226 994.187)" fill="#29282B"/>
<circle cx="1059.04" cy="943.731" r="13.9717" transform="rotate(145 1059.04 943.731)" fill="#29282B"/>
<circle cx="1129.63" cy="879.384" r="13.9717" transform="rotate(135 1129.63 879.384)" fill="#29282B"/>
<circle cx="1186.88" cy="803.12" r="13.9717" transform="rotate(125 1186.88 803.12)" fill="#29282B"/>
<circle cx="1229" cy="717.241" r="13.9717" transform="rotate(115 1229 717.241)" fill="#29282B"/>
<circle cx="1254.75" cy="624.372" r="13.9717" transform="rotate(105 1254.75 624.372)" fill="#29282B"/>
<circle cx="1263.35" cy="527.306" r="13.9717" transform="rotate(95 1263.35 527.306)" fill="#29282B"/>
<circle cx="1254.49" cy="429.022" r="13.9717" transform="rotate(85 1254.49 429.022)" fill="#29282B"/>
<circle cx="1236.52" cy="339.218" r="13.9717" transform="rotate(75 1236.52 339.218)" fill="#29282B"/>
<circle cx="1201.93" cy="253.905" r="13.9717" transform="rotate(65 1201.93 253.905)" fill="#29282B"/>
<circle cx="1151.79" cy="175.673" r="13.9717" transform="rotate(55 1151.79 175.673)" fill="#29282B"/>
<circle cx="1087.6" cy="106.887" r="13.9717" transform="rotate(45 1087.6 106.887)" fill="#29282B"/>
<circle cx="1011.33" cy="49.6538" r="13.9717" transform="rotate(35 1011.33 49.6538)" fill="#29282B"/>
<circle cx="925.293" cy="5.70305" r="13.9717" transform="rotate(25 925.293 5.70305)" fill="#29282B"/>
<circle cx="390.949" cy="14.6219" r="11.9757" transform="rotate(-30 390.949 14.6219)" fill="#29282B"/>
<circle cx="309.419" cy="80.7822" r="11.9757" transform="rotate(-40 309.419 80.7822)" fill="#29282B"/>
<circle cx="239.466" cy="159.281" r="11.9757" transform="rotate(-50 239.466 159.281)" fill="#29282B"/>
<circle cx="183.187" cy="247.735" r="11.9757" transform="rotate(-60 183.187 247.735)" fill="#29282B"/>
<circle cx="142.334" cy="343.455" r="11.9757" transform="rotate(-70 142.334 343.455)" fill="#29282B"/>
<circle cx="118.1" cy="443.53" r="11.9757" transform="rotate(-80 118.1 443.53)" fill="#29282B"/>
<circle cx="111.257" cy="544.923" r="11.9757" transform="rotate(-90 111.257 544.923)" fill="#29282B"/>
<circle cx="130.12" cy="652.685" r="11.9757" transform="rotate(-100 130.12 652.685)" fill="#29282B"/>
<circle cx="166.029" cy="755.408" r="11.9757" transform="rotate(-110 166.029 755.408)" fill="#29282B"/>
<circle cx="217.833" cy="849.971" r="11.9757" transform="rotate(-120 217.833 849.971)" fill="#29282B"/>
<circle cx="283.98" cy="933.501" r="11.9757" transform="rotate(-130 283.98 933.501)" fill="#29282B"/>
<circle cx="362.481" cy="1003.46" r="11.9757" transform="rotate(-140 362.481 1003.46)" fill="#29282B"/>
<circle cx="1053.17" cy="1023.09" r="11.9757" transform="rotate(150 1053.17 1023.09)" fill="#29282B"/>
<circle cx="1136.71" cy="958.932" r="11.9757" transform="rotate(140 1136.71 958.932)" fill="#29282B"/>
<circle cx="1206.66" cy="880.433" r="11.9757" transform="rotate(130 1206.66 880.433)" fill="#29282B"/>
<circle cx="1260.93" cy="789.977" r="11.9757" transform="rotate(120 1260.93 789.977)" fill="#29282B"/>
<circle cx="1297.85" cy="690.311" r="11.9757" transform="rotate(110 1297.85 690.311)" fill="#29282B"/>
<circle cx="1316.29" cy="584.464" r="11.9757" transform="rotate(100 1316.29 584.464)" fill="#29282B"/>
<circle cx="1315.72" cy="475.651" r="11.9757" transform="rotate(90 1315.72 475.651)" fill="#29282B"/>
<circle cx="1304.27" cy="375.308" r="11.9757" transform="rotate(80 1304.27 375.308)" fill="#29282B"/>
<circle cx="1274.15" cy="278.359" r="11.9757" transform="rotate(70 1274.15 278.359)" fill="#29282B"/>
<circle cx="1226.29" cy="187.743" r="11.9757" transform="rotate(60 1226.29 187.743)" fill="#29282B"/>
<circle cx="1162.14" cy="106.216" r="11.9757" transform="rotate(50 1162.14 106.216)" fill="#29282B"/>
<circle cx="1083.64" cy="36.2553" r="11.9757" transform="rotate(40 1083.64 36.2553)" fill="#29282B"/>
<circle cx="317.915" cy="2.05332" r="9.97976" transform="rotate(-35 317.915 2.05332)" fill="#29282B"/>
<circle cx="235.633" cy="82.0798" r="9.97976" transform="rotate(-45 235.633 82.0798)" fill="#29282B"/>
<circle cx="167.161" cy="174.417" r="9.97976" transform="rotate(-55 167.161 174.417)" fill="#29282B"/>
<circle cx="114.575" cy="276.238" r="9.97976" transform="rotate(-65 114.575 276.238)" fill="#29282B"/>
<circle cx="79.4883" cy="384.459" r="9.97976" transform="rotate(-75 79.4883 384.459)" fill="#29282B"/>
<circle cx="62.9327" cy="495.784" r="9.97976" transform="rotate(-85 62.9327 495.784)" fill="#29282B"/>
<circle cx="65.4392" cy="606.85" r="9.97976" transform="rotate(-95 65.4392 606.85)" fill="#29282B"/>
<circle cx="96.5372" cy="722.317" r="9.97976" transform="rotate(-105 96.5372 722.317)" fill="#29282B"/>
<circle cx="145.667" cy="830.638" r="9.97976" transform="rotate(-115 145.667 830.638)" fill="#29282B"/>
<circle cx="211.334" cy="928.52" r="9.97976" transform="rotate(-125 211.334 928.52)" fill="#29282B"/>
<circle cx="291.547" cy="1012.97" r="9.97976" transform="rotate(-135 291.547 1012.97)" fill="#29282B"/>
<circle cx="1137.79" cy="1035.08" r="9.97976" transform="rotate(145 1137.79 1035.08)" fill="#29282B"/>
<circle cx="1222.45" cy="957.034" r="9.97976" transform="rotate(135 1222.45 957.034)" fill="#29282B"/>
<circle cx="1290.91" cy="864.708" r="9.97976" transform="rotate(125 1290.91 864.708)" fill="#29282B"/>
<circle cx="1341.12" cy="760.902" r="9.97976" transform="rotate(115 1341.12 760.902)" fill="#29282B"/>
<circle cx="1371.55" cy="648.771" r="9.97976" transform="rotate(105 1371.55 648.771)" fill="#29282B"/>
<circle cx="1381.27" cy="531.725" r="9.97976" transform="rotate(95 1381.27 531.725)" fill="#29282B"/>
<circle cx="1370.02" cy="413.308" r="9.97976" transform="rotate(85 1370.02 413.308)" fill="#29282B"/>
<circle cx="1347.67" cy="305.192" r="9.97976" transform="rotate(75 1347.67 305.192)" fill="#29282B"/>
<circle cx="1305.37" cy="202.59" r="9.97976" transform="rotate(65 1305.37 202.59)" fill="#29282B"/>
<circle cx="1244.35" cy="108.62" r="9.97976" transform="rotate(55 1244.35 108.62)" fill="#29282B"/>
<circle cx="1166.5" cy="26.1482" r="9.97976" transform="rotate(45 1166.5 26.1482)" fill="#29282B"/>
</g>
</svg>
